<svg height="24" viewBox="0 0 115 24" xmlns="http://www.w3.org/2000/svg">
	<linearGradient id="gradient" gradientUnits="userSpaceOnUse" x1="0" y1="0" x2="0" y2="24">
		<stop offset="0" style="stop-color:#19B2FF"/>
		<stop offset="1" style="stop-color:#0095FF"/>
	</linearGradient>
	<path fill="#000" d="M46.0825 14.258H45.931L42.371 5.57204H39V18.5H41.6515V10.054H41.759L45.1045 18.437H46.91L50.2555 10.0855H50.363V18.5H53.014V5.57204H49.643L46.0825 14.258ZM58.696 15.9245H58.595L56.5875 8.80404H53.7595L57.2375 18.7775L57.0795 19.188C56.726 20.097 56.0505 20.141 55.1035 19.851L54.4975 21.8585C54.8825 22.0225 55.5075 22.136 56.189 22.136C58.19 22.136 59.2505 21.1135 59.8 19.548L63.5685 8.80404H60.7215L58.696 15.9245ZM70.325 11.007L69.1635 10.7295C68.04 10.4705 67.0995 10.054 67.1185 9.12604C67.1185 8.29254 67.857 7.68054 69.195 7.68054C70.5015 7.68054 71.3035 8.27404 71.4045 9.29004H74.024C73.986 6.98604 72.0925 5.39504 69.214 5.39504C66.3795 5.39504 64.303 6.96054 64.3155 9.30854C64.309 11.215 65.654 12.307 67.838 12.831L69.2455 13.1845C70.653 13.5255 71.436 13.9295 71.4425 14.8005C71.436 15.7475 70.54 16.391 69.151 16.391C67.731 16.391 66.708 15.7345 66.62 14.4405H63.975C64.0445 17.237 66.0455 18.6825 69.183 18.6825C72.339 18.6825 74.195 17.174 74.2015 14.8065C74.1945 12.6545 72.5725 11.512 70.325 11.007ZM79.7875 10.7735C80.7725 10.7735 81.4035 11.4235 81.549 12.3895H84.0865C83.973 10.1485 82.275 8.67804 79.7435 8.67804C76.802 8.67804 74.984 10.717 74.984 13.69C74.984 16.638 76.7705 18.6895 79.756 18.6895C82.338 18.6895 83.96 17.1745 84.0865 14.946H81.549C81.391 15.9815 80.7095 16.562 79.7875 16.562C78.5315 16.562 77.717 15.508 77.717 13.652C77.717 11.8215 78.5375 10.7735 79.7875 10.7735ZM87.9175 10.496H87.8165V8.80454H85.2095V18.5H87.8985V13.0145C87.8985 11.8215 88.7695 11.001 89.9565 11.001C90.329 11.001 90.84 11.064 91.093 11.146V8.76004C90.853 8.70304 90.5185 8.66554 90.247 8.66554C89.161 8.66504 88.271 9.29654 87.9175 10.496ZM91.7675 18.5H94.4565V8.80404H91.7675V18.5V18.5ZM93.112 4.64404C92.3085 4.64404 91.657 5.29554 91.657 6.09904C91.657 6.90254 92.3085 7.55404 93.112 7.55404C93.9155 7.55404 94.567 6.90254 94.567 6.09904C94.567 5.29554 93.916 4.64404 93.112 4.64404ZM101.605 8.67804C99.9825 8.67804 99.206 9.64404 98.8465 10.433H98.7265V8.80454H96.075V22.1365H98.764V16.947H98.846C99.2185 17.755 100.033 18.6575 101.599 18.6575C103.808 18.6575 105.531 16.909 105.531 13.6645C105.531 10.3315 103.732 8.67804 101.605 8.67804ZM100.746 16.518C99.4525 16.518 98.7075 15.3815 98.7075 13.652C98.7075 11.9225 99.44 10.8175 100.746 10.8175C102.078 10.8175 102.785 11.9725 102.785 13.652C102.785 15.344 102.065 16.518 100.746 16.518ZM110.739 16.4675C110.202 16.4675 109.829 16.2655 109.829 15.5205V10.824H111.654V8.80404H109.829V6.48104H107.141V8.80404H105.815V10.824H107.141V15.874C107.128 17.774 108.422 18.7145 110.372 18.6325C111.067 18.6075 111.559 18.4685 111.83 18.38L111.408 16.379C111.275 16.4045 110.991 16.4675 110.739 16.4675ZM113.672 8.81304C113.118 8.81304 112.67 9.26154 112.67 9.81554C112.67 10.3695 113.118 10.818 113.672 10.818C114.227 10.818 114.674 10.3695 114.674 9.81554C114.674 9.26154 114.226 8.81304 113.672 8.81304ZM113.672 10.5535C113.264 10.5535 112.935 10.2225 112.935 9.81554C112.935 9.40854 113.264 9.07754 113.672 9.07754C114.08 9.07754 114.41 9.40854 114.41 9.81554C114.41 10.224 114.08 10.5535 113.672 10.5535ZM114.083 9.64754C114.083 9.45354 113.938 9.34154 113.762 9.34154H113.31V10.2665H113.55V9.95554H113.704L113.847 10.2665H114.11L113.935 9.91054C114.024 9.86054 114.083 9.77154 114.083 9.64754ZM113.701 9.78204H113.55V9.52004H113.701C113.769 9.52004 113.829 9.55654 113.829 9.64804C113.829 9.73654 113.771 9.78204 113.701 9.78204Z"/>
	<path style="fill:url(#gradient)" d="M25.484 24L24.201 6.4505L18.166 24H16.125C14.221 24 14.318 20.945 13.0045 14.4655C11.791 8.4795 11.1435 6.117 9.95251 6.461C9.69851 6.6875 8.54801 9.47 7.28901 20.121C7.13101 21.456 6.75151 23.039 6.12051 23.6445C5.29501 24.4365 4.36351 23.859 4.04151 22.252C3.06651 17.3805 2.28351 14.4605 0.115515 9.128C-0.116985 8.494 0.920515 7.8695 1.59601 8.888C3.40551 11.6155 4.24301 15.1575 5.23351 18.527C5.69451 15.035 6.28451 0.236 11.08 2.136C12.6485 2.7575 13.269 4.093 13.8205 5.6985C15.078 9.3595 15.6915 13.6865 16.4655 18.0655C16.466 18.0695 22.501 0 22.501 0H28.223L30.0615 24H25.484Z"/>
</svg>