<svg width="24" height="24" viewBox="0 0 24 24" fill="none" xmlns="http://www.w3.org/2000/svg">
  <mask id="mask-1" style="mask-type: alpha" maskUnits="userSpaceOnUse" x="4" y="4" width="16" height="16">
    <circle cx="12" cy="12" r="8" fill="#C4C4C4"></circle>
  </mask>
  <g mask="url(#mask-1)">
    <g filter="url(#filter-1)">
      <circle cx="12" cy="12" r="8" fill="#F46670"></circle>
      <path
        d="M12 4C13.76 4 15.4709 4.58041 16.8676 5.6513C18.2644 6.7222 19.269 8.2238 19.7258 9.9235C20.1826 11.6232 20.0662 13.4261 19.3946 15.0529C18.7229 16.6798 17.5335 18.0397 16.0107 18.922C14.4878 19.8044 12.7164 20.1599 10.971 19.9336C9.22565 19.7072 7.60361 18.9115 6.35622 17.6699C5.10883 16.4283 4.30571 14.8099 4.07128 13.0656C3.83685 11.3212 4.1842 9.54826 5.05952 8.02134L12 12V4Z"
        fill="#FF8422"
      ></path>
      <path
        d="M12 4C13.402 4 14.7795 4.36847 15.9943 5.06849C17.2091 5.76851 18.2185 6.77549 18.9216 7.98854C19.6246 9.20159 19.9965 10.5781 20 11.9801C20.0035 13.3822 19.6384 14.7605 18.9414 15.9771C18.2444 17.1936 17.2399 18.2056 16.0286 18.9116C14.8173 19.6176 13.4417 19.9929 12.0397 19.9999C10.6377 20.0069 9.25843 19.6452 8.04018 18.9512C6.82193 18.2573 5.80746 17.2553 5.09842 16.0458L12 12V4Z"
        fill="#FFBF39"
      ></path>
      <path
        d="M12 4C13.0506 4 14.0909 4.20693 15.0615 4.60896C16.0321 5.011 16.914 5.60028 17.6569 6.34315C18.3997 7.08602 18.989 7.96793 19.391 8.93853C19.7931 9.90914 20 10.9494 20 12C20 13.0506 19.7931 14.0909 19.391 15.0615C18.989 16.0321 18.3997 16.914 17.6569 17.6569C16.914 18.3997 16.0321 18.989 15.0615 19.391C14.0909 19.7931 13.0506 20 12 20L12 12V4Z"
        fill="#66CC84"
      ></path>
      <path
        d="M12 4C13.4036 4 14.7824 4.36926 15.9981 5.0707C17.2138 5.77214 18.2236 6.78108 18.926 7.9962C19.6285 9.21133 19.9988 10.5899 20 11.9934C20.0012 13.397 19.633 14.7761 18.9326 15.9924L12 12V4Z"
        fill="#2D8CFF"
      ></path>
      <path d="M12 4C13.4057 4 14.7865 4.37037 16.0035 5.07383C17.2205 5.77728 18.2307 6.78897 18.9323 8.00703L12 12V4Z" fill="#A477FF"></path>
    </g>
    <g filter="url(#filter-2)">
      <circle cx="12" cy="12" r="8" fill="#F46670"></circle>
      <path
        d="M12 4C13.76 4 15.4709 4.58041 16.8676 5.6513C18.2644 6.7222 19.269 8.2238 19.7258 9.9235C20.1826 11.6232 20.0662 13.4261 19.3946 15.0529C18.7229 16.6798 17.5335 18.0397 16.0107 18.922C14.4878 19.8044 12.7164 20.1599 10.971 19.9336C9.22565 19.7072 7.60361 18.9115 6.35622 17.6699C5.10883 16.4283 4.30571 14.8099 4.07128 13.0656C3.83685 11.3212 4.1842 9.54826 5.05952 8.02134L12 12V4Z"
        fill="#FF8422"
      ></path>
      <path
        d="M12 4C13.402 4 14.7795 4.36847 15.9943 5.06849C17.2091 5.76851 18.2185 6.77549 18.9216 7.98854C19.6246 9.20159 19.9965 10.5781 20 11.9801C20.0035 13.3822 19.6384 14.7605 18.9414 15.9771C18.2444 17.1936 17.2399 18.2056 16.0286 18.9116C14.8173 19.6176 13.4417 19.9929 12.0397 19.9999C10.6377 20.0069 9.25843 19.6452 8.04018 18.9512C6.82193 18.2573 5.80746 17.2553 5.09842 16.0458L12 12V4Z"
        fill="#FFBF39"
      ></path>
      <path
        d="M12 4C13.0506 4 14.0909 4.20693 15.0615 4.60896C16.0321 5.011 16.914 5.60028 17.6569 6.34315C18.3997 7.08602 18.989 7.96793 19.391 8.93853C19.7931 9.90914 20 10.9494 20 12C20 13.0506 19.7931 14.0909 19.391 15.0615C18.989 16.0321 18.3997 16.914 17.6569 17.6569C16.914 18.3997 16.0321 18.989 15.0615 19.391C14.0909 19.7931 13.0506 20 12 20L12 12V4Z"
        fill="#66CC84"
      ></path>
      <path
        d="M12 4C13.4036 4 14.7824 4.36926 15.9981 5.0707C17.2138 5.77214 18.2236 6.78108 18.926 7.9962C19.6285 9.21133 19.9988 10.5899 20 11.9934C20.0012 13.397 19.633 14.7761 18.9326 15.9924L12 12V4Z"
        fill="#2D8CFF"
      ></path>
      <path d="M12 4C13.4057 4 14.7865 4.37037 16.0035 5.07383C17.2205 5.77728 18.2307 6.78897 18.9323 8.00703L12 12V4Z" fill="#A477FF"></path>
    </g>
    <g filter="url(#filter-3)">
      <circle cx="12" cy="12" r="8" fill="#F46670"></circle>
      <path
        d="M12 4C13.76 4 15.4709 4.58041 16.8676 5.6513C18.2644 6.7222 19.269 8.2238 19.7258 9.9235C20.1826 11.6232 20.0662 13.4261 19.3946 15.0529C18.7229 16.6798 17.5335 18.0397 16.0107 18.922C14.4878 19.8044 12.7164 20.1599 10.971 19.9336C9.22565 19.7072 7.60361 18.9115 6.35622 17.6699C5.10883 16.4283 4.30571 14.8099 4.07128 13.0656C3.83685 11.3212 4.1842 9.54826 5.05952 8.02134L12 12V4Z"
        fill="#FF8422"
      ></path>
      <path
        d="M12 4C13.402 4 14.7795 4.36847 15.9943 5.06849C17.2091 5.76851 18.2185 6.77549 18.9216 7.98854C19.6246 9.20159 19.9965 10.5781 20 11.9801C20.0035 13.3822 19.6384 14.7605 18.9414 15.9771C18.2444 17.1936 17.2399 18.2056 16.0286 18.9116C14.8173 19.6176 13.4417 19.9929 12.0397 19.9999C10.6377 20.0069 9.25843 19.6452 8.04018 18.9512C6.82193 18.2573 5.80746 17.2553 5.09842 16.0458L12 12V4Z"
        fill="#FFBF39"
      ></path>
      <path
        d="M12 4C13.0506 4 14.0909 4.20693 15.0615 4.60896C16.0321 5.011 16.914 5.60028 17.6569 6.34315C18.3997 7.08602 18.989 7.96793 19.391 8.93853C19.7931 9.90914 20 10.9494 20 12C20 13.0506 19.7931 14.0909 19.391 15.0615C18.989 16.0321 18.3997 16.914 17.6569 17.6569C16.914 18.3997 16.0321 18.989 15.0615 19.391C14.0909 19.7931 13.0506 20 12 20L12 12V4Z"
        fill="#66CC84"
      ></path>
      <path
        d="M12 4C13.4036 4 14.7824 4.36926 15.9981 5.0707C17.2138 5.77214 18.2236 6.78108 18.926 7.9962C19.6285 9.21133 19.9988 10.5899 20 11.9934C20.0012 13.397 19.633 14.7761 18.9326 15.9924L12 12V4Z"
        fill="#2D8CFF"
      ></path>
      <path d="M12 4C13.4057 4 14.7865 4.37037 16.0035 5.07383C17.2205 5.77728 18.2307 6.78897 18.9323 8.00703L12 12V4Z" fill="#A477FF"></path>
    </g>
    <g filter="url(#filter-4)">
      <circle cx="12" cy="12" r="8" fill="#F46670"></circle>
      <path
        d="M12 4C13.76 4 15.4709 4.58041 16.8676 5.6513C18.2644 6.7222 19.269 8.2238 19.7258 9.9235C20.1826 11.6232 20.0662 13.4261 19.3946 15.0529C18.7229 16.6798 17.5335 18.0397 16.0107 18.922C14.4878 19.8044 12.7164 20.1599 10.971 19.9336C9.22565 19.7072 7.60361 18.9115 6.35622 17.6699C5.10883 16.4283 4.30571 14.8099 4.07128 13.0656C3.83685 11.3212 4.1842 9.54826 5.05952 8.02134L12 12V4Z"
        fill="#FF8422"
      ></path>
      <path
        d="M12 4C13.402 4 14.7795 4.36847 15.9943 5.06849C17.2091 5.76851 18.2185 6.77549 18.9216 7.98854C19.6246 9.20159 19.9965 10.5781 20 11.9801C20.0035 13.3822 19.6384 14.7605 18.9414 15.9771C18.2444 17.1936 17.2399 18.2056 16.0286 18.9116C14.8173 19.6176 13.4417 19.9929 12.0397 19.9999C10.6377 20.0069 9.25843 19.6452 8.04018 18.9512C6.82193 18.2573 5.80746 17.2553 5.09842 16.0458L12 12V4Z"
        fill="#FFBF39"
      ></path>
      <path
        d="M12 4C13.0506 4 14.0909 4.20693 15.0615 4.60896C16.0321 5.011 16.914 5.60028 17.6569 6.34315C18.3997 7.08602 18.989 7.96793 19.391 8.93853C19.7931 9.90914 20 10.9494 20 12C20 13.0506 19.7931 14.0909 19.391 15.0615C18.989 16.0321 18.3997 16.914 17.6569 17.6569C16.914 18.3997 16.0321 18.989 15.0615 19.391C14.0909 19.7931 13.0506 20 12 20L12 12V4Z"
        fill="#66CC84"
      ></path>
      <path
        d="M12 4C13.4036 4 14.7824 4.36926 15.9981 5.0707C17.2138 5.77214 18.2236 6.78108 18.926 7.9962C19.6285 9.21133 19.9988 10.5899 20 11.9934C20.0012 13.397 19.633 14.7761 18.9326 15.9924L12 12V4Z"
        fill="#2D8CFF"
      ></path>
      <path d="M12 4C13.4057 4 14.7865 4.37037 16.0035 5.07383C17.2205 5.77728 18.2307 6.78897 18.9323 8.00703L12 12V4Z" fill="#A477FF"></path>
    </g>
  </g>
  <defs>
    <filter id="filter-1" x="0" y="0" width="24" height="24" filterUnits="userSpaceOnUse" color-interpolation-filters="sRGB">
      <feFlood flood-opacity="0" result="BackgroundImageFix"></feFlood>
      <feBlend mode="normal" in="SourceGraphic" in2="BackgroundImageFix" result="shape"></feBlend>
      <feGaussianBlur stdDeviation="2" result="effect1_foregroundBlur_1596_62600"></feGaussianBlur>
    </filter>
    <filter id="filter-2" x="0" y="0" width="24" height="24" filterUnits="userSpaceOnUse" color-interpolation-filters="sRGB">
      <feFlood flood-opacity="0" result="BackgroundImageFix"></feFlood>
      <feBlend mode="normal" in="SourceGraphic" in2="BackgroundImageFix" result="shape"></feBlend>
      <feGaussianBlur stdDeviation="2" result="effect1_foregroundBlur_1596_62600"></feGaussianBlur>
    </filter>
    <filter id="filter-3" x="0" y="0" width="24" height="24" filterUnits="userSpaceOnUse" color-interpolation-filters="sRGB">
      <feFlood flood-opacity="0" result="BackgroundImageFix"></feFlood>
      <feBlend mode="normal" in="SourceGraphic" in2="BackgroundImageFix" result="shape"></feBlend>
      <feGaussianBlur stdDeviation="2" result="effect1_foregroundBlur_1596_62600"></feGaussianBlur>
    </filter>
    <filter id="filter-4" x="0" y="0" width="24" height="24" filterUnits="userSpaceOnUse" color-interpolation-filters="sRGB">
      <feFlood flood-opacity="0" result="BackgroundImageFix"></feFlood>
      <feBlend mode="normal" in="SourceGraphic" in2="BackgroundImageFix" result="shape"></feBlend>
      <feGaussianBlur stdDeviation="2" result="effect1_foregroundBlur_1596_62600"></feGaussianBlur>
    </filter>
  </defs>
</svg>
