<svg width="24" height="24" viewBox="0 0 24 24" fill="none" xmlns="http://www.w3.org/2000/svg">
  <path d="M4 6C4 5.44772 4.44772 5 5 5H19C19.5523 5 20 5.44772 20 6C20 6.55228 19.5523 7 19 7H5C4.44772 7 4 6.55228 4 6Z" fill="#252A30"></path>
  <path
    d="M4 11C4 10.4477 4.44772 10 5 10H19C19.5523 10 20 10.4477 20 11V12C20 12.5523 19.5523 13 19 13H5C4.44772 13 4 12.5523 4 12V11Z"
    fill="#252A30"
  ></path>
  <path
    d="M5 16C4.44772 16 4 16.4477 4 17V19C4 19.5523 4.44772 20 5 20H19C19.5523 20 20 19.5523 20 19V17C20 16.4477 19.5523 16 19 16H5Z"
    fill="#252A30"
  ></path>
</svg>
