<svg width="24" height="24" viewBox="0 0 24 24" fill="none" xmlns="http://www.w3.org/2000/svg">
  <path
    fill-rule="evenodd"
    clip-rule="evenodd"
    d="M7.49878 12C7.49878 12.8284 6.82721 13.5 5.99878 13.5C5.17035 13.5 4.49878 12.8284 4.49878 12C4.49878 11.1716 5.17035 10.5 5.99878 10.5C6.82721 10.5 7.49878 11.1716 7.49878 12ZM13.5 12C13.5 12.8284 12.8284 13.5 12 13.5C11.1716 13.5 10.5 12.8284 10.5 12C10.5 11.1716 11.1716 10.5 12 10.5C12.8284 10.5 13.5 11.1716 13.5 12ZM18.0013 13.5C18.8297 13.5 19.5013 12.8284 19.5013 12C19.5013 11.1716 18.8297 10.5 18.0013 10.5C17.1729 10.5 16.5013 11.1716 16.5013 12C16.5013 12.8284 17.1729 13.5 18.0013 13.5Z"
    fill="#222230"
  ></path>
</svg>
