<svg
  width="25"
  height="25"
  viewBox="0 0 25 25"
  fill="none"
  xmlns="http://www.w3.org/2000/svg"
>
  <path
    fill-rule="evenodd"
    clip-rule="evenodd"
    d="M5.43702 16.0334C5.34614 16.4272 5.27026 16.756 5.23398 17.0219C5.19704 17.2927 5.1887 17.5732 5.2954 17.84C5.44787 18.2211 5.74987 18.5231 6.13101 18.6756C6.39776 18.7823 6.67831 18.7739 6.94905 18.737C7.21501 18.7007 7.54379 18.6248 7.93756 18.5339L9.16832 18.2499C9.18128 18.2469 9.19406 18.244 9.20667 18.2411C9.50263 18.1728 9.70764 18.1256 9.9021 18.0446C10.0742 17.973 10.2377 17.8824 10.3897 17.7744C10.5614 17.6524 10.7101 17.5036 10.9248 17.2888C10.934 17.2796 10.9432 17.2704 10.9526 17.261L19.9349 8.27866C20.2196 7.99407 20.4544 7.75918 20.6301 7.55221C20.8126 7.33724 20.9605 7.11971 21.0446 6.86069C21.1752 6.459 21.1752 6.02631 21.0446 5.62462C20.9605 5.3656 20.8126 5.14807 20.6301 4.9331C20.4544 4.72613 20.2196 4.49125 19.935 4.20666L19.7643 4.03601C19.4797 3.75141 19.2448 3.51652 19.0379 3.34082C18.8229 3.15832 18.6054 3.01049 18.3463 2.92633C17.9447 2.79581 17.512 2.79581 17.1103 2.92633C16.8513 3.01049 16.6337 3.15832 16.4188 3.34082C16.2118 3.51653 15.9769 3.75142 15.6923 4.03603L6.71 13.0183C6.7006 13.0277 6.69132 13.037 6.68216 13.0462C6.46735 13.2609 6.31856 13.4096 6.19655 13.5813C6.08858 13.7332 5.99794 13.8968 5.92632 14.0689C5.84539 14.2633 5.79813 14.4683 5.72989 14.7643C5.72698 14.7769 5.72404 14.7897 5.72105 14.8026L5.43702 16.0334Z"
    fill="white"
  />
  <path
    d="M19.4255 4.40415L19.5669 4.54557C20.1609 5.1396 20.4579 5.43661 20.5692 5.7791C20.6671 6.08037 20.6671 6.40489 20.5692 6.70616C20.4579 7.04865 20.1609 7.34566 19.5669 7.93969L18.4355 9.07106L10.5992 16.9074C10.3578 17.1488 10.2371 17.2695 10.1001 17.3668C9.9786 17.4532 9.84777 17.5257 9.7101 17.583C9.55502 17.6475 9.38868 17.6859 9.05601 17.7627L7.8485 18.0414C7.02134 18.2322 6.60776 18.3277 6.31682 18.2113C6.06273 18.1097 5.86139 17.9083 5.75975 17.6542C5.64337 17.3633 5.73882 16.9497 5.9297 16.1226L6.20836 14.915L6.20836 14.915C6.28513 14.5824 6.32351 14.416 6.38805 14.261C6.44535 14.1233 6.51786 13.9925 6.60424 13.8709C6.70154 13.734 6.82225 13.6133 7.06367 13.3719L14.9 5.53552L16.0314 4.40415C16.6254 3.81013 16.9224 3.51311 17.2649 3.40183C17.5662 3.30395 17.8907 3.30395 18.192 3.40183C18.5344 3.51311 18.8315 3.81013 19.4255 4.40415Z"
    fill="white"
  />
  <path
    d="M18.4355 9.07106L19.5669 7.93969C20.1609 7.34566 20.4579 7.04865 20.5692 6.70616C20.6671 6.40489 20.6671 6.08037 20.5692 5.7791C20.4579 5.43661 20.1609 5.1396 19.5669 4.54557L19.4255 4.40415C18.8315 3.81013 18.5344 3.51311 18.192 3.40183C17.8907 3.30394 17.5662 3.30394 17.2649 3.40183C16.9224 3.51311 16.6254 3.81013 16.0314 4.40415L14.9 5.53552M18.4355 9.07106L10.5992 16.9074C10.3578 17.1488 10.2371 17.2695 10.1001 17.3668C9.9786 17.4532 9.84777 17.5257 9.7101 17.583C9.55502 17.6475 9.38868 17.6859 9.05601 17.7627L7.8485 18.0414C7.02134 18.2322 6.60776 18.3277 6.31682 18.2113C6.06273 18.1097 5.86139 17.9083 5.75975 17.6542C5.64337 17.3633 5.73882 16.9497 5.9297 16.1226L6.20836 14.915C6.28513 14.5824 6.32351 14.416 6.38805 14.261C6.44535 14.1233 6.51786 13.9925 6.60424 13.8709C6.70154 13.734 6.82225 13.6133 7.06367 13.3719L14.9 5.53552M18.4355 9.07106L14.9 5.53552"
    stroke="black"
    stroke-linejoin="round"
  />
  <defs>
    <filter
      id="filter0_d"
      x="0.506119"
      y="0"
      width="24.4648"
      height="24.4648"
      filterUnits="userSpaceOnUse"
      color-interpolation-filters="sRGB"
    >
      <feFlood
        flood-opacity="0"
        result="BackgroundImageFix"
      />
      <feColorMatrix
        in="SourceAlpha"
        type="matrix"
        values="0 0 0 0 0 0 0 0 0 0 0 0 0 0 0 0 0 0 127 0"
      />
      <feOffset dy="1" />
      <feGaussianBlur stdDeviation="1.5" />
      <feColorMatrix
        type="matrix"
        values="0 0 0 0 0 0 0 0 0 0 0 0 0 0 0 0 0 0 0.35 0"
      />
      <feBlend
        mode="normal"
        in2="BackgroundImageFix"
        result="effect1_dropShadow"
      />
      <feBlend
        mode="normal"
        in="SourceGraphic"
        in2="effect1_dropShadow"
        result="shape"
      />
    </filter>
  </defs>
</svg>
